<svg width="100" height="100" viewBox="0 0 100 100" xmlns="http://www.w3.org/2000/svg">
  <defs>
    <pattern id="kente" patternUnits="userSpaceOnUse" width="100" height="100">
      <!-- Background -->
      <rect width="100" height="100" fill="#1A1A1A"/>
      
      <!-- Horizontal stripes -->
      <rect x="0" y="10" width="100" height="5" fill="#D4AF37" opacity="0.7"/>
      <rect x="0" y="25" width="100" height="5" fill="#A06A4D" opacity="0.7"/>
      <rect x="0" y="40" width="100" height="5" fill="#D4AF37" opacity="0.7"/>
      <rect x="0" y="55" width="100" height="5" fill="#A06A4D" opacity="0.7"/>
      <rect x="0" y="70" width="100" height="5" fill="#D4AF37" opacity="0.7"/>
      <rect x="0" y="85" width="100" height="5" fill="#A06A4D" opacity="0.7"/>
      
      <!-- Vertical stripes -->
      <rect x="10" y="0" width="5" height="100" fill="#D4AF37" opacity="0.5"/>
      <rect x="25" y="0" width="5" height="100" fill="#A06A4D" opacity="0.5"/>
      <rect x="40" y="0" width="5" height="100" fill="#D4AF37" opacity="0.5"/>
      <rect x="55" y="0" width="5" height="100" fill="#A06A4D" opacity="0.5"/>
      <rect x="70" y="0" width="5" height="100" fill="#D4AF37" opacity="0.5"/>
      <rect x="85" y="0" width="5" height="100" fill="#A06A4D" opacity="0.5"/>
      
      <!-- Adinkra symbols -->
      <!-- Sankofa (bird looking back) - symbolizes learning from the past -->
      <path d="M15 15 Q20 10, 25 15 T35 15 Q30 20, 35 25 T35 35 Q30 30, 25 35 T15 35 Q20 30, 15 25 T15 15" fill="#D4AF37" opacity="0.8"/>
      
      <!-- Dwennimmen (ram's horns) - symbolizes humility and strength -->
      <path d="M65 15 C60 15, 60 25, 65 25 C70 25, 70 15, 65 15 M65 15 C70 15, 75 20, 75 25 C75 30, 70 35, 65 35 C60 35, 55 30, 55 25 C55 20, 60 15, 65 15" fill="#A06A4D" opacity="0.8"/>
      
      <!-- Adinkrahene (chief of Adinkra symbols) - symbolizes greatness, charisma -->
      <circle cx="15" cy="65" r="10" stroke="#D4AF37" stroke-width="2" fill="none" opacity="0.8"/>
      <circle cx="15" cy="65" r="7" stroke="#D4AF37" stroke-width="2" fill="none" opacity="0.8"/>
      <circle cx="15" cy="65" r="4" stroke="#D4AF37" stroke-width="2" fill="none" opacity="0.8"/>
      
      <!-- Nyame Nti (by God's grace) - symbolizes faith and trust in God -->
      <path d="M65 55 L75 65 L65 75 L55 65 Z" stroke="#A06A4D" stroke-width="2" fill="none" opacity="0.8"/>
      <path d="M65 60 L70 65 L65 70 L60 65 Z" stroke="#A06A4D" stroke-width="2" fill="none" opacity="0.8"/>
    </pattern>
  </defs>
  
  <rect width="100" height="100" fill="url(#kente)"/>
</svg> 